<?xml version="1.0" encoding="UTF-8" standalone="no"?><svg xmlns="http://www.w3.org/2000/svg" xmlns:xlink="http://www.w3.org/1999/xlink" contentScriptType="application/ecmascript" contentStyleType="text/css" height="672px" preserveAspectRatio="none" style="width:485px;height:672px;background:#FFFFFF;" version="1.1" viewBox="0 0 485 672" width="485px" zoomAndPan="magnify"><defs><filter height="300%" id="fxzfutjawm6c5" width="300%" x="-1" y="-1"><feGaussianBlur result="blurOut" stdDeviation="2.0"/><feColorMatrix in="blurOut" result="blurOut2" type="matrix" values="0 0 0 0 0 0 0 0 0 0 0 0 0 0 0 0 0 0 .4 0"/><feOffset dx="4.0" dy="4.0" in="blurOut2" result="blurOut3"/><feBlend in="SourceGraphic" in2="blurOut3" mode="normal"/></filter></defs><g><!--MD5=[0d78f5c4c40288d5040138c716219c3f]
cluster lib/dom.js--><rect fill="#FFFFFF" filter="url(#fxzfutjawm6c5)" height="370.5" style="stroke:#000000;stroke-width:1.5;" width="416" x="7" y="290"/><path d="M92,290 L92,299.2969 L82,309.2969 L7,309.2969 " fill="none" style="stroke:#000000;stroke-width:1.5;"/><text fill="#000000" font-family="sans-serif" font-size="14" font-weight="bold" lengthAdjust="spacing" textLength="75" x="10" y="303.9951">lib/dom.js</text><!--MD5=[a73427a04380f8eac2e009ce280a8a80]
cluster Spec:DOM--><path d="M48.4966,341.7818 C52.9852,331.0046 62.3937,327.5939 70.5235,337.9947 C77.146,324.8155 85.1689,324.4101 93.8579,336.052 C98.2555,326.0085 107.1521,324.0983 113.6687,333.9412 C120.8989,319.8749 128.9112,319.8821 139.7708,330.0286 C147.5064,323.112 154.7704,324.2348 159.5606,333.607 C168.5006,322.6762 176.6271,324.4904 183.4129,335.9063 C192.637,327.3603 200.3155,328.3671 205.1068,340.5462 C216.6762,331.5343 227.5638,334.0605 233,348 C234.9135,346.8326 236.2619,347.2907 236.7636,349.5504 C245.7297,357.4093 245.0117,363.1865 234.2944,368.4776 C246.311,373.6622 246.1716,382.4655 236.1154,389.5569 C245.187,395.9115 245.0379,403.0463 237.0702,410.1895 C245.0317,415.6256 243.7365,422.4542 236.5994,427.4792 C245.2717,432.963 246.6369,439.3852 237.4274,445.6823 C248.7511,453.7138 248.6518,460.3409 236.7182,467.6205 C245.8186,473.3415 247.1581,481.1858 238.1882,488.1977 C247.979,496.1987 247.1364,502.6122 235.5962,507.7914 C244.2386,511.7888 244.6371,518.5134 238.1325,524.773 C246.6548,532.2803 248.7278,539.2362 237.7152,546.3659 C244.8129,553.502 242.9788,559.7571 234.108,563.5389 C243.9896,568.3388 248.0422,578.5153 236.8611,585.9076 C244.9952,590.7089 244.1807,598.6885 235.7288,602.3474 C245.836,616.0261 242.7815,624.8239 226,628.5 C227.3604,629.2154 227.346,630.2281 226.3599,631.2505 C219.5137,641.5151 210.9337,642.7063 204.6151,630.7346 C199.4799,639.1586 189.9415,641.4166 184.197,631.4095 C179.4057,642.798 168.008,642.8054 161.0396,633.8929 C153.6562,644.3939 146.2335,643.1193 138.9353,633.7979 C132.7351,646.6555 120.6101,645.932 114.1721,634.0358 C107.7756,642.8009 101.094,645.0282 94.1587,634.5975 C86.7562,647.0294 74.9472,646.1846 69.0952,633.0759 C54.2779,641.6152 43.3104,640.2768 39,621.5 C39.9263,620.7763 40.4574,620.9649 40.7476,622.0985 C33.8374,617.4169 31.5794,611.1299 39.8828,605.6485 C29.559,599.0597 29.5356,591.77 37.9647,583.5534 C30.4256,576.9769 31.0805,570.1954 39.7969,565.2457 C28.544,559.8523 29.3429,553.5111 36.7969,545.3035 C28.401,541.2093 25.3393,532.1056 34.6232,526.0185 C25.7138,519.5063 24.9179,509.1896 36.4003,504.3498 C27.7611,498.3667 26.6472,492.5698 35.8894,486.0866 C27.5141,480.5591 26.3965,474.4426 35.2304,468.2783 C24.3979,461.218 24.7684,453.0219 35.7747,446.5076 C27.649,439.9493 27.332,431.7945 38.1865,427.6657 C27.1033,421.4883 30.1574,412.4131 38.982,407.002 C31.8982,401.8276 32.8751,394.2934 40.1317,390.0941 C28.9178,385.1841 27.8043,376.0429 38.2588,369.1915 C26.8468,356.4871 29.0813,345.925 46,341 C47.1103,340.2328 48.1287,340.1783 48.4966,341.7818 " fill="#FFFFFF" filter="url(#fxzfutjawm6c5)" style="stroke:#000000;stroke-width:1.5;"/><text fill="#000000" font-family="sans-serif" font-size="14" font-weight="bold" lengthAdjust="spacing" textLength="81" x="95.5" y="358.9951">Spec:DOM</text><!--MD5=[6ac948e06da12b81826bee87fe9bab12]
cluster lib/dom-parser.js--><rect fill="#FFFFFF" filter="url(#fxzfutjawm6c5)" height="234" style="stroke:#000000;stroke-width:1.5;" width="149" x="169" y="7"/><path d="M312,7 L312,16.2969 L302,26.2969 L169,26.2969 " fill="none" style="stroke:#000000;stroke-width:1.5;"/><text fill="#000000" font-family="sans-serif" font-size="14" font-weight="bold" lengthAdjust="spacing" textLength="133" x="172" y="20.9951">lib/dom-parser.js</text><!--MD5=[c5d4b202cf711c6c5904eabee474561a]
cluster lib/sax.js--><rect fill="#FFFFFF" filter="url(#fxzfutjawm6c5)" height="225.5" style="stroke:#000000;stroke-width:1.5;" width="130" x="343" y="7"/><path d="M421,7 L421,16.2969 L411,26.2969 L343,26.2969 " fill="none" style="stroke:#000000;stroke-width:1.5;"/><text fill="#000000" font-family="sans-serif" font-size="14" font-weight="bold" lengthAdjust="spacing" textLength="68" x="346" y="20.9951">lib/sax.js</text><!--MD5=[c5459c98211e364c4cbfd206af66d892]
entity XMLSerializer--><rect fill="#FEFECE" filter="url(#fxzfutjawm6c5)" height="52.5938" style="stroke:#000000;stroke-width:1.5;" width="150" x="257" y="576"/><text fill="#000000" font-family="sans-serif" font-size="14" lengthAdjust="spacing" textLength="90" x="267" y="598.9951">XMLSerializer</text><text fill="#000000" font-family="sans-serif" font-size="14" lengthAdjust="spacing" textLength="130" x="267" y="615.292">Spec:DOM-Parsing</text><!--MD5=[3b4ad73541bf2c4acb93a3b2d8150145]
entity DOMException--><rect fill="#FEFECE" filter="url(#fxzfutjawm6c5)" height="36.2969" style="stroke:#000000;stroke-width:1.5;" width="122" x="75" y="584.5"/><text fill="#000000" font-family="sans-serif" font-size="14" lengthAdjust="spacing" textLength="102" x="85" y="607.4951">DOMException</text><!--MD5=[352a6fded7ec04ed4e5b838b27e0e7c3]
entity DOMImplementation--><rect fill="#FEFECE" filter="url(#fxzfutjawm6c5)" height="36.2969" style="stroke:#000000;stroke-width:1.5;" width="161" x="51.5" y="368"/><text fill="#000000" font-family="sans-serif" font-size="14" lengthAdjust="spacing" textLength="141" x="61.5" y="390.9951">DOMImplementation</text><!--MD5=[6f0349a3316fd14676bbc4272ee74571]
entity Document--><ellipse cx="136" cy="490" fill="#FEFECE" filter="url(#fxzfutjawm6c5)" rx="8" ry="8" style="stroke:#A80036;stroke-width:1.5;"/><text fill="#000000" font-family="sans-serif" font-size="14" lengthAdjust="spacing" textLength="73" x="99.5" y="519.9951">Document</text><!--MD5=[fa148232c8edfb72792bb51b1be6f6e7]
entity Element--><ellipse cx="56" cy="490" fill="#FEFECE" filter="url(#fxzfutjawm6c5)" rx="8" ry="8" style="stroke:#A80036;stroke-width:1.5;"/><text fill="#000000" font-family="sans-serif" font-size="14" lengthAdjust="spacing" textLength="57" x="27.5" y="519.9951">Element</text><!--MD5=[ed3747ad05e6730ca3536a40b62ba942]
entity Node--><ellipse cx="216" cy="490" fill="#FEFECE" filter="url(#fxzfutjawm6c5)" rx="8" ry="8" style="stroke:#A80036;stroke-width:1.5;"/><text fill="#000000" font-family="sans-serif" font-size="14" lengthAdjust="spacing" textLength="37" x="197.5" y="519.9951">Node</text><!--MD5=[e55676b532fb68fcb6214a2a5f269e35]
entity DOMParser--><rect fill="#FEFECE" filter="url(#fxzfutjawm6c5)" height="52.5938" style="stroke:#000000;stroke-width:1.5;" width="98" x="199" y="42"/><text fill="#000000" font-family="sans-serif" font-size="14" lengthAdjust="spacing" textLength="78" x="209" y="64.9951">DOMParser</text><text fill="#000000" font-family="sans-serif" font-size="14" lengthAdjust="spacing" textLength="78" x="209" y="81.292">Spec:HTML</text><!--MD5=[b1a73f132b129918bc25305d7e92ae79]
entity DOMHandler--><rect fill="#FEFECE" filter="url(#fxzfutjawm6c5)" height="52.5938" style="stroke:#000000;stroke-width:1.5;" width="107" x="195.5" y="172"/><text fill="#000000" font-family="sans-serif" font-size="14" lengthAdjust="spacing" textLength="87" x="205.5" y="194.9951">DOMHandler</text><text fill="#000000" font-family="sans-serif" font-size="14" lengthAdjust="spacing" textLength="67" x="209.5" y="211.292">Spec:SAX</text><!--MD5=[dedeb373967622fa7f5bb3e81cfeedb9]
entity XMLReader--><rect fill="#FEFECE" filter="url(#fxzfutjawm6c5)" height="52.5938" style="stroke:#000000;stroke-width:1.5;" width="98" x="359" y="42"/><text fill="#000000" font-family="sans-serif" font-size="14" lengthAdjust="spacing" textLength="78" x="369" y="64.9951">XMLReader</text><text fill="#000000" font-family="sans-serif" font-size="14" lengthAdjust="spacing" textLength="67" x="373" y="81.292">Spec:SAX</text><!--MD5=[0307ca5835c0e9b6df9d625a05b4d00d]
entity ParseError--><rect fill="#FEFECE" filter="url(#fxzfutjawm6c5)" height="36.2969" style="stroke:#000000;stroke-width:1.5;" width="92" x="362" y="180.5"/><text fill="#000000" font-family="sans-serif" font-size="14" lengthAdjust="spacing" textLength="72" x="372" y="203.4951">ParseError</text><!--MD5=[bddf7555d7f7f1472c4bb60f3a76f9ea]
link DOMParser to DOMHandler--><path d="M248.2,95.1 C248.36,115.76 248.59,144.91 248.76,166.83 " fill="none" id="DOMParser-to-DOMHandler" style="stroke:#A80036;stroke-width:1.0;"/><polygon fill="#A80036" points="248.8,171.95,252.7485,162.9273,248.7714,166.9501,244.7486,162.973,248.8,171.95" style="stroke:#A80036;stroke-width:1.0;"/><text fill="#000000" font-family="sans-serif" font-size="13" lengthAdjust="spacing" textLength="25" x="249" y="138.0669">new</text><!--MD5=[84974e98e9466d11cf8861ddec495789]
link DOMParser to XMLReader--><path d="M297.31,68.5 C315.19,68.5 335.47,68.5 353.75,68.5 " fill="none" id="DOMParser-to-XMLReader" style="stroke:#A80036;stroke-width:1.0;"/><polygon fill="#A80036" points="358.85,68.5,349.85,64.5,353.85,68.5,349.85,72.5,358.85,68.5" style="stroke:#A80036;stroke-width:1.0;"/><text fill="#000000" font-family="sans-serif" font-size="13" lengthAdjust="spacing" textLength="25" x="315.5" y="61.5669">new</text><!--MD5=[f9d58d09a96e2c2af24b6ed0876d14ad]
link XMLReader to DOMHandler--><path d="M376.21,95.1 C349.77,116.37 312.18,146.64 284.71,168.75 " fill="none" id="XMLReader-to-DOMHandler" style="stroke:#A80036;stroke-width:1.0;"/><polygon fill="#A80036" points="280.74,171.95,290.2632,169.4385,284.6402,168.8213,285.2573,163.1982,280.74,171.95" style="stroke:#A80036;stroke-width:1.0;"/><text fill="#000000" font-family="sans-serif" font-size="13" lengthAdjust="spacing" textLength="34" x="339" y="138.0669">using</text><!--MD5=[e47e8f5ab86d71547e13c1720cb36d9e]
link XMLReader to ParseError--><path d="M408,95.1 C408,118.46 408,152.67 408,175.01 " fill="none" id="XMLReader-to-ParseError" style="stroke:#A80036;stroke-width:1.0;"/><polygon fill="#A80036" points="408,180.15,412,171.15,408,175.15,404,171.15,408,180.15" style="stroke:#A80036;stroke-width:1.0;"/><text fill="#000000" font-family="sans-serif" font-size="13" lengthAdjust="spacing" textLength="35" x="409" y="138.0669">throw</text><!--MD5=[b665fa6700546d4fdfe7ccb97bd296aa]
link DOMHandler to DOMImplementation--><path d="M232.73,225.29 C209.48,262.16 167.15,329.26 145.52,363.56 " fill="none" id="DOMHandler-to-DOMImplementation" style="stroke:#A80036;stroke-width:1.0;"/><polygon fill="#A80036" points="142.74,367.98,150.9153,362.4878,145.4003,363.7464,144.1416,358.2314,142.74,367.98" style="stroke:#A80036;stroke-width:1.0;"/><text fill="#000000" font-family="sans-serif" font-size="13" lengthAdjust="spacing" textLength="25" x="212" y="270.0669">new</text><!--MD5=[2c63a0167e0a7d247ee330e1172c9d22]
link DOMHandler to Document--><path d="M252.51,225.11 C256.83,265.6 260.24,345.78 230,404 C211.33,439.94 170.91,468.14 149.67,481.15 " fill="none" id="DOMHandler-to-Document" style="stroke:#A80036;stroke-width:1.0;"/><polygon fill="#A80036" points="145.2,483.84,154.9754,482.6395,149.4875,481.2675,150.8595,475.7796,145.2,483.84" style="stroke:#A80036;stroke-width:1.0;"/><text fill="#000000" font-family="sans-serif" font-size="13" lengthAdjust="spacing" textLength="34" x="256" y="390.5669">using</text><!--MD5=[4a5662cadc439091e70404cc6bc97b08]
link DOMImplementation to Document--><path d="M132.68,404.3 C133.47,424.49 134.76,457.44 135.48,475.72 " fill="none" id="DOMImplementation-to-Document" style="stroke:#A80036;stroke-width:1.0;"/><polygon fill="#A80036" points="135.68,480.89,139.316,471.7369,135.4796,475.894,131.3225,472.0576,135.68,480.89" style="stroke:#A80036;stroke-width:1.0;"/><text fill="#000000" font-family="sans-serif" font-size="13" lengthAdjust="spacing" textLength="25" x="135" y="447.0669">new</text><!--MD5=[cb948aebf947b1b1fab28e8f7526ba3c]
link Document to Node--><path d="M145.18,490 C159.04,490 185.44,490 201.8,490 " fill="none" id="Document-to-Node" style="stroke:#A80036;stroke-width:1.0;"/><polygon fill="#A80036" points="206.93,490,197.93,486,201.93,490,197.93,494,206.93,490" style="stroke:#A80036;stroke-width:1.0;"/><text fill="#000000" font-family="sans-serif" font-size="13" lengthAdjust="spacing" textLength="25" x="163.5" y="483.0669">new</text><!--MD5=[924072be6e850bec5f49cf701b5af361]
reverse link Element to Document--><path d="M70.33,490 C86.74,490 113.13,490 126.93,490 " fill="none" id="Element-backto-Document" style="stroke:#A80036;stroke-width:1.0;"/><polygon fill="#A80036" points="65.18,490,74.18,494,70.18,490,74.18,486,65.18,490" style="stroke:#A80036;stroke-width:1.0;"/><text fill="#000000" font-family="sans-serif" font-size="13" lengthAdjust="spacing" textLength="25" x="83.5" y="483.0669">new</text><!--MD5=[2ac8e674bc5c8f13019b7e5501ff950b]
link Document to DOMException--><path d="M127.84,499.2 C121.33,506.38 112.69,517.44 109,529 C103.45,546.39 111.41,565.76 120.09,580.1 " fill="none" id="Document-to-DOMException" style="stroke:#A80036;stroke-width:1.0;"/><polygon fill="#A80036" points="122.8,584.38,121.3599,574.637,120.123,580.157,114.6031,578.9201,122.8,584.38" style="stroke:#A80036;stroke-width:1.0;"/><text fill="#000000" font-family="sans-serif" font-size="13" lengthAdjust="spacing" textLength="35" x="110" y="542.0669">throw</text><!--MD5=[40711d15ae8e39ee540bed09f37bc3ef]
reverse link Node to XMLSerializer--><path d="M228.57,502.98 C246.82,520.36 281.09,553.01 305.17,575.94 " fill="none" id="Node-backto-XMLSerializer" style="stroke:#A80036;stroke-width:1.0;"/><polygon fill="#A80036" points="224.72,499.31,228.4589,508.4216,228.3332,502.7661,233.9887,502.6404,224.72,499.31" style="stroke:#A80036;stroke-width:1.0;"/><text fill="#000000" font-family="sans-serif" font-size="13" lengthAdjust="spacing" textLength="25" x="271" y="542.0669">visit</text></g></svg>