<?xml version="1.0" encoding="UTF-8" standalone="no"?><svg xmlns="http://www.w3.org/2000/svg" xmlns:xlink="http://www.w3.org/1999/xlink" contentScriptType="application/ecmascript" contentStyleType="text/css" height="672px" preserveAspectRatio="none" style="width:495px;height:672px;" version="1.1" viewBox="0 0 495 672" width="495px" zoomAndPan="magnify"><defs><filter height="300%" id="fxzfutjawm6c5" width="300%" x="-1" y="-1"><feGaussianBlur result="blurOut" stdDeviation="2.0"/><feColorMatrix in="blurOut" result="blurOut2" type="matrix" values="0 0 0 0 0 0 0 0 0 0 0 0 0 0 0 0 0 0 .4 0"/><feOffset dx="4.0" dy="4.0" in="blurOut2" result="blurOut3"/><feBlend in="SourceGraphic" in2="blurOut3" mode="normal"/></filter></defs><g><!--MD5=[0d78f5c4c40288d5040138c716219c3f]
cluster lib/dom.js--><rect fill="#FFFFFF" filter="url(#fxzfutjawm6c5)" height="370.5" style="stroke:#000000;stroke-width:1.5;" width="422" x="7" y="290"/><path d="M95,290 L95,299.2969 L85,309.2969 L7,309.2969 " fill="none" style="stroke:#000000;stroke-width:1.5;"/><text fill="#000000" font-family="sans-serif" font-size="14" font-weight="bold" lengthAdjust="spacing" textLength="78" x="10" y="303.9951">lib/dom.js</text><!--MD5=[a73427a04380f8eac2e009ce280a8a80]
cluster Spec:DOM--><path d="M47.2757,342.8486 C52.4246,329.543 63.3378,328.9045 71.5133,339.82 C76.0255,328.8172 86.8605,328.3061 93.6879,337.2456 C99.8945,324.0264 109.9767,325.4732 118.2799,334.9765 C123.3082,324.1491 133.9495,322.0108 141.7076,331.8876 C146.8425,322.0822 156.6061,323.1814 161.5844,332.0541 C172.2525,321.5256 180.2134,323.8251 186.1587,336.959 C195.7519,326.0845 204.3075,328.8885 209.4574,341.388 C219.7651,329.4276 233.3667,332.1577 237,348 C239.3604,347.5955 240.6295,348.958 240.269,351.272 C249.0354,358.2403 248.1771,365.1132 237.8165,369.5095 C249.8918,373.3076 251.0139,383.2566 240.6821,390.1636 C249.0918,394.7609 247.7047,402.6724 240.6077,407.202 C250.2409,412.8728 251.8399,423.8501 240.7837,429.6829 C249.2703,434.8729 251.0265,441.4761 241.6484,447.5314 C249.3109,453.4383 250.7305,462.2717 240.4217,467.0492 C251.3164,471.7372 253.0312,480.1551 244.3978,488.4682 C251.8103,492.7657 251.1454,500.4576 244.1605,504.5426 C253.8187,512.19 253.2862,521.648 241.7339,527.0039 C248.3813,533.2438 248.3298,539.8467 239.6343,544.2148 C250.1635,548.8843 249.8248,558.6305 241.9518,565.3206 C250.0492,571.4764 249.261,577.823 241.7092,583.773 C250.9286,590.8407 249.3469,599.9354 238.0457,603.1166 C248.0576,615.6374 245.5382,624.0777 230,628.5 C232.3463,627.3117 233.3423,628.4092 233.5495,630.6892 C228.1277,644.6734 217.1011,644.7991 208.0248,634.5364 C201.3816,646.0556 194.3904,646.425 186.1387,636.1519 C180.9578,647.0558 170.8019,650.7845 162.4618,639.5271 C155.9367,651.1802 146.8086,650.7678 139.3448,640.5178 C132.5305,651.4087 124.3988,649.5615 118.1929,639.8919 C109.6944,653.2086 97.7607,649.3891 92.4448,636.7364 C83.1001,643.9706 74.9227,644.6296 70.8669,631.2106 C58.197,641.7471 43.5724,637.5367 39,621.5 C39.6091,620.4266 40.4126,620.5088 41.0217,621.5 C30.2624,616.23 31.7174,609.2578 39.6959,602.6686 C30.1624,596.2399 30.9099,589.9898 40.6811,584.6144 C30.5012,579.0423 31.2233,570.5845 39.3506,563.84 C31.4638,559.2285 29.1981,550.8525 38.3075,545.2855 C28.147,539.2935 27.8676,532.8708 37.6456,526.1878 C26.189,519.2178 26.0572,512.667 37.3697,505.3949 C30.451,499.9442 29.4793,492.0282 38.9646,488.0893 C28.6514,483.2317 28.291,474.3855 38.25,468.7777 C27.2251,462.4092 28.7769,455.424 37.5003,448.3314 C27.6265,442.329 30.4749,434.7976 38.4816,429.7391 C28.0129,422.0196 28.8989,413.5404 39.496,406.7505 C31.0741,401.8503 30.144,394.3555 39.0464,389.0161 C31.9087,381.96 30.5562,375.5777 41.2442,370.6553 C26.3957,360.1043 30.3205,346.6552 46,341 C47.1669,341.0481 47.7786,341.6483 47.2757,342.8486 " fill="#FFFFFF" filter="url(#fxzfutjawm6c5)" style="stroke:#000000;stroke-width:1.5;"/><text fill="#000000" font-family="sans-serif" font-size="14" font-weight="bold" lengthAdjust="spacing" textLength="82" x="97" y="358.9951">Spec:DOM</text><!--MD5=[6ac948e06da12b81826bee87fe9bab12]
cluster lib/dom-parser.js--><rect fill="#FFFFFF" filter="url(#fxzfutjawm6c5)" height="234" style="stroke:#000000;stroke-width:1.5;" width="151" x="173" y="7"/><path d="M318,7 L318,16.2969 L308,26.2969 L173,26.2969 " fill="none" style="stroke:#000000;stroke-width:1.5;"/><text fill="#000000" font-family="sans-serif" font-size="14" font-weight="bold" lengthAdjust="spacing" textLength="135" x="176" y="20.9951">lib/dom-parser.js</text><!--MD5=[c5d4b202cf711c6c5904eabee474561a]
cluster lib/sax.js--><rect fill="#FFFFFF" filter="url(#fxzfutjawm6c5)" height="225.5" style="stroke:#000000;stroke-width:1.5;" width="134" x="349" y="7"/><path d="M428,7 L428,16.2969 L418,26.2969 L349,26.2969 " fill="none" style="stroke:#000000;stroke-width:1.5;"/><text fill="#000000" font-family="sans-serif" font-size="14" font-weight="bold" lengthAdjust="spacing" textLength="69" x="352" y="20.9951">lib/sax.js</text><!--MD5=[c5459c98211e364c4cbfd206af66d892]
entity XMLSerializer--><rect fill="#FEFECE" filter="url(#fxzfutjawm6c5)" height="52.5938" style="stroke:#000000;stroke-width:1.5;" width="151" x="261.5" y="576"/><text fill="#000000" font-family="sans-serif" font-size="14" lengthAdjust="spacing" textLength="97" x="271.5" y="598.9951">XMLSerializer</text><text fill="#000000" font-family="sans-serif" font-size="14" lengthAdjust="spacing" textLength="131" x="271.5" y="615.292">Spec:DOM-Parsing</text><!--MD5=[3b4ad73541bf2c4acb93a3b2d8150145]
entity DOMException--><rect fill="#FEFECE" filter="url(#fxzfutjawm6c5)" height="36.2969" style="stroke:#000000;stroke-width:1.5;" width="124" x="76" y="584.5"/><text fill="#000000" font-family="sans-serif" font-size="14" lengthAdjust="spacing" textLength="104" x="86" y="607.4951">DOMException</text><!--MD5=[352a6fded7ec04ed4e5b838b27e0e7c3]
entity DOMImplementation--><rect fill="#FEFECE" filter="url(#fxzfutjawm6c5)" height="36.2969" style="stroke:#000000;stroke-width:1.5;" width="167" x="50.5" y="368"/><text fill="#000000" font-family="sans-serif" font-size="14" lengthAdjust="spacing" textLength="147" x="60.5" y="390.9951">DOMImplementation</text><!--MD5=[6f0349a3316fd14676bbc4272ee74571]
entity Document--><ellipse cx="138" cy="490" fill="#FEFECE" filter="url(#fxzfutjawm6c5)" rx="8" ry="8" style="stroke:#A80036;stroke-width:1.5;"/><text fill="#000000" font-family="sans-serif" font-size="14" lengthAdjust="spacing" textLength="74" x="101" y="519.9951">Document</text><!--MD5=[fa148232c8edfb72792bb51b1be6f6e7]
entity Element--><ellipse cx="56" cy="490" fill="#FEFECE" filter="url(#fxzfutjawm6c5)" rx="8" ry="8" style="stroke:#A80036;stroke-width:1.5;"/><text fill="#000000" font-family="sans-serif" font-size="14" lengthAdjust="spacing" textLength="59" x="26.5" y="519.9951">Element</text><!--MD5=[ed3747ad05e6730ca3536a40b62ba942]
entity Node--><ellipse cx="220" cy="490" fill="#FEFECE" filter="url(#fxzfutjawm6c5)" rx="8" ry="8" style="stroke:#A80036;stroke-width:1.5;"/><text fill="#000000" font-family="sans-serif" font-size="14" lengthAdjust="spacing" textLength="37" x="201.5" y="519.9951">Node</text><!--MD5=[e55676b532fb68fcb6214a2a5f269e35]
entity DOMParser--><rect fill="#FEFECE" filter="url(#fxzfutjawm6c5)" height="52.5938" style="stroke:#000000;stroke-width:1.5;" width="100" x="201" y="42"/><text fill="#000000" font-family="sans-serif" font-size="14" lengthAdjust="spacing" textLength="79" x="211" y="64.9951">DOMParser</text><text fill="#000000" font-family="sans-serif" font-size="14" lengthAdjust="spacing" textLength="80" x="211" y="81.292">Spec:HTML</text><!--MD5=[b1a73f132b129918bc25305d7e92ae79]
entity DOMHandler--><rect fill="#FEFECE" filter="url(#fxzfutjawm6c5)" height="52.5938" style="stroke:#000000;stroke-width:1.5;" width="111" x="196.5" y="172"/><text fill="#000000" font-family="sans-serif" font-size="14" lengthAdjust="spacing" textLength="91" x="206.5" y="194.9951">DOMHandler</text><text fill="#000000" font-family="sans-serif" font-size="14" lengthAdjust="spacing" textLength="69" x="210.5" y="211.292">Spec:SAX</text><!--MD5=[dedeb373967622fa7f5bb3e81cfeedb9]
entity XMLReader--><rect fill="#FEFECE" filter="url(#fxzfutjawm6c5)" height="52.5938" style="stroke:#000000;stroke-width:1.5;" width="102" x="365" y="42"/><text fill="#000000" font-family="sans-serif" font-size="14" lengthAdjust="spacing" textLength="82" x="375" y="64.9951">XMLReader</text><text fill="#000000" font-family="sans-serif" font-size="14" lengthAdjust="spacing" textLength="69" x="379" y="81.292">Spec:SAX</text><!--MD5=[0307ca5835c0e9b6df9d625a05b4d00d]
entity ParseError--><rect fill="#FEFECE" filter="url(#fxzfutjawm6c5)" height="36.2969" style="stroke:#000000;stroke-width:1.5;" width="95" x="368.5" y="180.5"/><text fill="#000000" font-family="sans-serif" font-size="14" lengthAdjust="spacing" textLength="75" x="378.5" y="203.4951">ParseError</text><!--MD5=[bddf7555d7f7f1472c4bb60f3a76f9ea]
link DOMParser to DOMHandler--><path d="M251.2,95.1 C251.36,115.76 251.59,144.91 251.76,166.83 " fill="none" id="DOMParser-to-DOMHandler" style="stroke:#A80036;stroke-width:1.0;"/><polygon fill="#A80036" points="251.8,171.95,255.7485,162.9273,251.7714,166.9501,247.7486,162.973,251.8,171.95" style="stroke:#A80036;stroke-width:1.0;"/><text fill="#000000" font-family="sans-serif" font-size="13" lengthAdjust="spacing" textLength="27" x="252" y="138.0669">new</text><!--MD5=[84974e98e9466d11cf8861ddec495789]
link DOMParser to XMLReader--><path d="M301.4,68.5 C319.77,68.5 340.65,68.5 359.51,68.5 " fill="none" id="DOMParser-to-XMLReader" style="stroke:#A80036;stroke-width:1.0;"/><polygon fill="#A80036" points="364.77,68.5,355.77,64.5,359.77,68.5,355.77,72.5,364.77,68.5" style="stroke:#A80036;stroke-width:1.0;"/><text fill="#000000" font-family="sans-serif" font-size="13" lengthAdjust="spacing" textLength="27" x="319.5" y="61.5669">new</text><!--MD5=[f9d58d09a96e2c2af24b6ed0876d14ad]
link XMLReader to DOMHandler--><path d="M383.21,95.1 C355.94,116.37 317.17,146.64 288.84,168.75 " fill="none" id="XMLReader-to-DOMHandler" style="stroke:#A80036;stroke-width:1.0;"/><polygon fill="#A80036" points="284.74,171.95,294.2928,169.5532,288.6775,168.8685,289.3623,163.2532,284.74,171.95" style="stroke:#A80036;stroke-width:1.0;"/><text fill="#000000" font-family="sans-serif" font-size="13" lengthAdjust="spacing" textLength="35" x="344" y="138.0669">using</text><!--MD5=[e47e8f5ab86d71547e13c1720cb36d9e]
link XMLReader to ParseError--><path d="M416,95.1 C416,118.46 416,152.67 416,175.01 " fill="none" id="XMLReader-to-ParseError" style="stroke:#A80036;stroke-width:1.0;"/><polygon fill="#A80036" points="416,180.15,420,171.15,416,175.15,412,171.15,416,180.15" style="stroke:#A80036;stroke-width:1.0;"/><text fill="#000000" font-family="sans-serif" font-size="13" lengthAdjust="spacing" textLength="37" x="417" y="138.0669">throw</text><!--MD5=[b665fa6700546d4fdfe7ccb97bd296aa]
link DOMHandler to DOMImplementation--><path d="M235.59,225.29 C212.14,262.16 169.46,329.26 147.64,363.56 " fill="none" id="DOMHandler-to-DOMImplementation" style="stroke:#A80036;stroke-width:1.0;"/><polygon fill="#A80036" points="144.83,367.98,153.0318,362.5274,147.5107,363.7593,146.2787,358.2383,144.83,367.98" style="stroke:#A80036;stroke-width:1.0;"/><text fill="#000000" font-family="sans-serif" font-size="13" lengthAdjust="spacing" textLength="27" x="214" y="270.0669">new</text><!--MD5=[2c63a0167e0a7d247ee330e1172c9d22]
link DOMHandler to Document--><path d="M255.95,225.15 C260.91,265.7 265.45,345.95 235,404 C215.76,440.69 173.67,468.74 151.8,481.48 " fill="none" id="DOMHandler-to-Document" style="stroke:#A80036;stroke-width:1.0;"/><polygon fill="#A80036" points="147.21,484.1,157.008,483.1008,151.5495,481.6162,153.034,476.1577,147.21,484.1" style="stroke:#A80036;stroke-width:1.0;"/><text fill="#000000" font-family="sans-serif" font-size="13" lengthAdjust="spacing" textLength="35" x="260" y="390.5669">using</text><!--MD5=[4a5662cadc439091e70404cc6bc97b08]
link DOMImplementation to Document--><path d="M134.68,404.3 C135.47,424.49 136.76,457.44 137.48,475.72 " fill="none" id="DOMImplementation-to-Document" style="stroke:#A80036;stroke-width:1.0;"/><polygon fill="#A80036" points="137.68,480.89,141.316,471.7369,137.4796,475.894,133.3225,472.0576,137.68,480.89" style="stroke:#A80036;stroke-width:1.0;"/><text fill="#000000" font-family="sans-serif" font-size="13" lengthAdjust="spacing" textLength="27" x="137" y="447.0669">new</text><!--MD5=[cb948aebf947b1b1fab28e8f7526ba3c]
link Document to Node--><path d="M147.09,490 C161.25,490 188.7,490 205.59,490 " fill="none" id="Document-to-Node" style="stroke:#A80036;stroke-width:1.0;"/><polygon fill="#A80036" points="210.87,490,201.87,486,205.87,490,201.87,494,210.87,490" style="stroke:#A80036;stroke-width:1.0;"/><text fill="#000000" font-family="sans-serif" font-size="13" lengthAdjust="spacing" textLength="27" x="165.5" y="483.0669">new</text><!--MD5=[924072be6e850bec5f49cf701b5af361]
reverse link Element to Document--><path d="M70.37,490 C87.23,490 114.68,490 128.87,490 " fill="none" id="Element-backto-Document" style="stroke:#A80036;stroke-width:1.0;"/><polygon fill="#A80036" points="65.09,490,74.09,494,70.09,490,74.09,486,65.09,490" style="stroke:#A80036;stroke-width:1.0;"/><text fill="#000000" font-family="sans-serif" font-size="13" lengthAdjust="spacing" textLength="27" x="83.5" y="483.0669">new</text><!--MD5=[2ac8e674bc5c8f13019b7e5501ff950b]
link Document to DOMException--><path d="M129.25,499.08 C122.26,506.19 112.99,517.21 109,529 C103.1,546.46 111.64,565.82 120.95,580.14 " fill="none" id="Document-to-DOMException" style="stroke:#A80036;stroke-width:1.0;"/><polygon fill="#A80036" points="123.85,584.41,122.0859,574.7204,121.0338,580.2786,115.4756,579.2264,123.85,584.41" style="stroke:#A80036;stroke-width:1.0;"/><text fill="#000000" font-family="sans-serif" font-size="13" lengthAdjust="spacing" textLength="37" x="110" y="542.0669">throw</text><!--MD5=[40711d15ae8e39ee540bed09f37bc3ef]
reverse link Node to XMLSerializer--><path d="M232.68,502.98 C251.09,520.36 285.65,553.01 309.94,575.94 " fill="none" id="Node-backto-XMLSerializer" style="stroke:#A80036;stroke-width:1.0;"/><polygon fill="#A80036" points="228.79,499.31,232.5845,508.3985,232.4243,502.744,238.0789,502.5837,228.79,499.31" style="stroke:#A80036;stroke-width:1.0;"/><text fill="#000000" font-family="sans-serif" font-size="13" lengthAdjust="spacing" textLength="28" x="275" y="542.0669">visit</text></g></svg>